<svg width="665" height="192" viewBox="0 0 665 192" fill="none" xmlns="http://www.w3.org/2000/svg">
<rect width="192" height="192" rx="40" fill="#3F16E4"/>
<rect width="17.7681" height="71.6913" transform="matrix(-0.746022 -0.683658 0.649172 -0.744947 60.0187 113.981)" fill="#FFFEFE"/>
<rect width="15.5582" height="35.1928" transform="matrix(0.645739 -0.747995 0.749047 0.68027 33.8159 116.848)" fill="#FFFEFE"/>
<rect width="13.5987" height="6.6175" transform="matrix(0.739553 0.690798 -0.656415 0.738429 64.3878 115.062)" fill="#FFFEFE"/>
<rect width="1.62445" height="26.7213" transform="matrix(-0.746022 -0.683658 0.649172 -0.744947 60.3794 140.975)" fill="#FFFEFE"/>
<path d="M73.6892 125.689L64.3877 115.062L82.7098 115.522L73.6892 125.689Z" fill="#FFFEFE"/>
<rect width="17.7681" height="71.6913" transform="matrix(0.746022 0.683658 -0.649172 0.744947 132.961 77.8447)" fill="#FFFEFE"/>
<rect width="15.5582" height="35.1928" transform="matrix(-0.645739 0.747995 -0.749047 -0.68027 159.163 74.9783)" fill="#FFFEFE"/>
<rect width="13.5987" height="6.6175" transform="matrix(-0.739553 -0.690798 0.656415 -0.738429 128.592 76.7642)" fill="#FFFEFE"/>
<rect width="1.62445" height="26.7213" transform="matrix(0.746022 0.683658 -0.649172 0.744947 132.6 50.8507)" fill="#FFFEFE"/>
<path d="M119.29 66.137L128.592 76.7642L110.27 76.3038L119.29 66.137Z" fill="#FFFEFE"/>
<path d="M262.42 135V55.288L278.214 52.744V79.456C279.274 79.1027 280.617 78.7847 282.242 78.502C283.938 78.1487 285.563 77.972 287.118 77.972C291.641 77.972 295.386 78.608 298.354 79.88C301.393 81.0813 303.795 82.8127 305.562 85.074C307.399 87.3353 308.671 90.0207 309.378 93.13C310.155 96.2393 310.544 99.702 310.544 103.518V135H294.75V105.426C294.75 100.338 294.079 96.734 292.736 94.614C291.464 92.494 289.061 91.434 285.528 91.434C284.115 91.434 282.772 91.5753 281.5 91.858C280.299 92.07 279.203 92.3173 278.214 92.6V135H262.42ZM349.326 123.976C350.881 123.976 352.365 123.941 353.778 123.87C355.191 123.799 356.322 123.693 357.17 123.552V111.574C356.534 111.433 355.58 111.291 354.308 111.15C353.036 111.009 351.87 110.938 350.81 110.938C349.326 110.938 347.913 111.044 346.57 111.256C345.298 111.397 344.167 111.715 343.178 112.21C342.189 112.705 341.411 113.376 340.846 114.224C340.281 115.072 339.998 116.132 339.998 117.404C339.998 119.877 340.811 121.609 342.436 122.598C344.132 123.517 346.429 123.976 349.326 123.976ZM348.054 77.76C352.718 77.76 356.605 78.29 359.714 79.35C362.823 80.41 365.297 81.9293 367.134 83.908C369.042 85.8867 370.385 88.2893 371.162 91.116C371.939 93.9427 372.328 97.0873 372.328 100.55V133.41C370.067 133.905 366.922 134.47 362.894 135.106C358.866 135.813 353.99 136.166 348.266 136.166C344.662 136.166 341.376 135.848 338.408 135.212C335.511 134.576 333.002 133.551 330.882 132.138C328.762 130.654 327.137 128.746 326.006 126.414C324.875 124.082 324.31 121.22 324.31 117.828C324.31 114.577 324.946 111.821 326.218 109.56C327.561 107.299 329.327 105.497 331.518 104.154C333.709 102.811 336.217 101.857 339.044 101.292C341.871 100.656 344.803 100.338 347.842 100.338C349.891 100.338 351.693 100.444 353.248 100.656C354.873 100.797 356.181 101.009 357.17 101.292V99.808C357.17 97.1227 356.357 94.9673 354.732 93.342C353.107 91.7167 350.28 90.904 346.252 90.904C343.567 90.904 340.917 91.116 338.302 91.54C335.687 91.8933 333.426 92.4233 331.518 93.13L329.504 80.41C330.423 80.1273 331.553 79.8447 332.896 79.562C334.309 79.2087 335.829 78.926 337.454 78.714C339.079 78.4313 340.775 78.2193 342.542 78.078C344.379 77.866 346.217 77.76 348.054 77.76ZM389.26 65.358L405.054 62.814V79.244H424.028V92.388H405.054V111.998C405.054 115.319 405.619 117.969 406.75 119.948C407.951 121.927 410.318 122.916 413.852 122.916C415.548 122.916 417.279 122.775 419.046 122.492C420.883 122.139 422.544 121.679 424.028 121.114L426.254 133.41C424.346 134.187 422.226 134.859 419.894 135.424C417.562 135.989 414.7 136.272 411.308 136.272C406.997 136.272 403.428 135.707 400.602 134.576C397.775 133.375 395.514 131.749 393.818 129.7C392.122 127.58 390.92 125.036 390.214 122.068C389.578 119.1 389.26 115.814 389.26 112.21V65.358ZM435.349 107.122C435.349 103.094 435.985 99.3133 437.257 95.78C438.6 92.176 440.508 89.0667 442.981 86.452C445.454 83.7667 448.458 81.6467 451.991 80.092C455.524 78.5373 459.552 77.76 464.075 77.76C467.043 77.76 469.764 78.0427 472.237 78.608C474.71 79.1027 477.113 79.8447 479.445 80.834L476.159 93.448C474.675 92.8827 473.05 92.388 471.283 91.964C469.516 91.54 467.538 91.328 465.347 91.328C460.683 91.328 457.185 92.7767 454.853 95.674C452.592 98.5713 451.461 102.387 451.461 107.122C451.461 112.139 452.521 116.026 454.641 118.782C456.832 121.538 460.612 122.916 465.983 122.916C467.891 122.916 469.94 122.739 472.131 122.386C474.322 122.033 476.336 121.467 478.173 120.69L480.399 133.622C478.562 134.399 476.265 135.071 473.509 135.636C470.753 136.201 467.714 136.484 464.393 136.484C459.305 136.484 454.924 135.742 451.249 134.258C447.574 132.703 444.536 130.619 442.133 128.004C439.801 125.389 438.07 122.315 436.939 118.782C435.879 115.178 435.349 111.291 435.349 107.122ZM494.179 135V55.288L509.973 52.744V79.456C511.033 79.1027 512.376 78.7847 514.001 78.502C515.697 78.1487 517.322 77.972 518.877 77.972C523.4 77.972 527.145 78.608 530.113 79.88C533.152 81.0813 535.554 82.8127 537.321 85.074C539.158 87.3353 540.43 90.0207 541.137 93.13C541.914 96.2393 542.303 99.702 542.303 103.518V135H526.509V105.426C526.509 100.338 525.838 96.734 524.495 94.614C523.223 92.494 520.82 91.434 517.287 91.434C515.874 91.434 514.531 91.5753 513.259 91.858C512.058 92.07 510.962 92.3173 509.973 92.6V135H494.179ZM557.129 107.546C557.129 102.599 557.871 98.2887 559.355 94.614C560.91 90.8687 562.924 87.7593 565.397 85.286C567.87 82.8127 570.697 80.94 573.877 79.668C577.128 78.396 580.449 77.76 583.841 77.76C591.756 77.76 598.01 80.198 602.603 85.074C607.196 89.8793 609.493 96.9813 609.493 106.38C609.493 107.299 609.458 108.323 609.387 109.454C609.316 110.514 609.246 111.468 609.175 112.316H573.347C573.7 115.567 575.22 118.146 577.905 120.054C580.59 121.962 584.194 122.916 588.717 122.916C591.614 122.916 594.441 122.669 597.197 122.174C600.024 121.609 602.32 120.937 604.087 120.16L606.207 132.986C605.359 133.41 604.228 133.834 602.815 134.258C601.402 134.682 599.812 135.035 598.045 135.318C596.349 135.671 594.512 135.954 592.533 136.166C590.554 136.378 588.576 136.484 586.597 136.484C581.58 136.484 577.198 135.742 573.453 134.258C569.778 132.774 566.704 130.76 564.231 128.216C561.828 125.601 560.026 122.527 558.825 118.994C557.694 115.461 557.129 111.645 557.129 107.546ZM594.229 101.504C594.158 100.161 593.911 98.854 593.487 97.582C593.134 96.31 592.533 95.1793 591.685 94.19C590.908 93.2007 589.883 92.388 588.611 91.752C587.41 91.116 585.89 90.798 584.053 90.798C582.286 90.798 580.767 91.116 579.495 91.752C578.223 92.3173 577.163 93.0947 576.315 94.084C575.467 95.0733 574.796 96.2393 574.301 97.582C573.877 98.854 573.559 100.161 573.347 101.504H594.229ZM624.331 65.358L640.125 62.814V79.244H659.099V92.388H640.125V111.998C640.125 115.319 640.691 117.969 641.821 119.948C643.023 121.927 645.39 122.916 648.923 122.916C650.619 122.916 652.351 122.775 654.117 122.492C655.955 122.139 657.615 121.679 659.099 121.114L661.325 133.41C659.417 134.187 657.297 134.859 654.965 135.424C652.633 135.989 649.771 136.272 646.379 136.272C642.069 136.272 638.5 135.707 635.673 134.576C632.847 133.375 630.585 131.749 628.889 129.7C627.193 127.58 625.992 125.036 625.285 122.068C624.649 119.1 624.331 115.814 624.331 112.21V65.358Z" fill="white"/>
</svg>
